<?xml version="1.0" standalone="no"?>
<!DOCTYPE svg PUBLIC "-//W3C//DTD SVG 20010904//EN"
 "http://www.w3.org/TR/2001/REC-SVG-20010904/DTD/svg10.dtd">
<svg version="1.0" xmlns="http://www.w3.org/2000/svg"
 width="512.000000pt" height="512.000000pt" viewBox="0 0 512.000000 512.000000"
 preserveAspectRatio="xMidYMid meet">
<metadata>
Created by potrace 1.14, written by Peter Selinger 2001-2017
</metadata>
<g transform="translate(0.000000,512.000000) scale(0.100000,-0.100000)"
fill="#000000" stroke="none">
<path d="M430 5100 c-70 -19 -121 -40 -131 -53 -3 -5 -10 -8 -14 -7 -4 1 -18
-7 -31 -19 -13 -11 -24 -18 -24 -13 0 4 -32 -27 -70 -68 -39 -41 -70 -79 -70
-84 0 -5 -6 -17 -14 -25 -8 -9 -27 -50 -42 -91 l-29 -75 -2 -2080 c-2 -1340 1
-2096 7 -2125 44 -198 184 -358 375 -429 l70 -26 2080 -2 c2287 -3 2138 -7
2268 58 34 17 66 37 70 45 5 8 12 12 17 9 4 -3 19 8 33 24 14 17 28 27 31 24
3 -4 6 -1 6 5 0 6 10 22 23 36 39 43 62 76 59 86 -1 6 3 10 10 10 6 0 8 3 5 7
-4 3 0 14 8 23 8 9 16 27 17 41 2 13 6 26 9 29 27 23 28 147 26 2175 -1 1144
-5 2089 -9 2100 -8 27 -33 93 -49 133 -7 17 -17 32 -21 32 -4 0 -8 6 -8 13 0
17 -131 157 -146 157 -7 0 -17 6 -23 14 -17 20 -95 56 -171 77 -62 17 -157 18
-2130 18 -1944 -1 -2069 -2 -2130 -19z"/>
</g>
</svg>
